<?xml version="1.0" standalone="no"?>
<!DOCTYPE svg PUBLIC "-//W3C//DTD SVG 20010904//EN"
 "http://www.w3.org/TR/2001/REC-SVG-20010904/DTD/svg10.dtd">
<svg version="1.0" xmlns="http://www.w3.org/2000/svg"
 width="386.000000pt" height="216.000000pt" viewBox="0 0 386.000000 216.000000"
 preserveAspectRatio="xMidYMid meet">

<g transform="translate(0.000000,216.000000) scale(0.100000,-0.100000)"
fill="#000000" stroke="none">
<path d="M2 1079 l3 -1074 130 0 130 0 3 906 2 906 43 -8 c84 -16 78 -29 75
153 l-3 162 -30 8 c-16 5 -103 12 -193 15 l-162 6 2 -1074z m331 1035 l27 -6
0 -143 0 -142 -42 8 c-24 4 -51 8 -60 9 -17 0 -18 -50 -18 -905 l0 -905 -105
0 -105 0 0 1052 0 1051 138 -7 c75 -3 149 -9 165 -12z"/>
<path d="M482 1079 l3 -1074 130 0 130 0 3 906 2 907 78 -15 c311 -58 596
-248 822 -549 29 -38 56 -70 59 -72 4 -1 19 24 35 55 15 32 48 93 73 136 l45
77 -42 58 c-71 95 -297 312 -395 378 -262 177 -482 250 -783 261 l-162 6 2
-1074z m377 1026 c298 -58 541 -193 781 -434 75 -75 149 -156 165 -180 l29
-43 -18 -32 c-11 -17 -39 -68 -63 -113 -25 -46 -46 -83 -47 -83 -2 0 -27 33
-57 72 -160 216 -410 402 -651 487 -77 26 -225 61 -264 61 -12 0 -14 -139 -14
-905 l0 -905 -105 0 -105 0 0 1051 0 1052 133 -6 c72 -3 170 -13 216 -22z"/>
<path d="M3050 2139 c-285 -58 -485 -147 -683 -303 -303 -237 -499 -521 -671
-971 -6 -16 -14 -4 -37 60 -16 44 -58 139 -93 211 -60 122 -70 136 -152 213
-104 98 -201 168 -307 222 -85 43 -246 101 -259 93 -4 -3 -8 -21 -8 -40 0 -25
7 -40 27 -57 111 -94 147 -128 211 -200 97 -109 188 -247 261 -392 129 -259
198 -533 217 -858 l7 -117 128 0 129 0 0 63 c0 101 19 272 46 404 60 303 192
594 373 828 26 33 66 92 90 130 166 266 416 515 649 645 105 59 139 80 127 79
-5 -1 -30 -5 -55 -10z m-94 -52 c-251 -159 -442 -349 -622 -617 -47 -69 -116
-168 -154 -220 -164 -224 -278 -492 -339 -795 -24 -120 -41 -270 -41 -360 l0
-65 -109 0 -108 0 -7 115 c-26 440 -178 857 -423 1165 -66 83 -167 187 -237
245 -31 25 -46 45 -46 61 0 13 1 24 3 24 2 0 35 -11 73 -24 160 -54 320 -154
456 -284 72 -69 86 -88 144 -206 36 -72 82 -180 104 -241 21 -60 41 -103 44
-95 85 237 143 367 230 510 242 399 594 681 979 785 64 17 78 17 53 2z"/>
<path d="M3575 2143 c-85 -10 -241 -49 -325 -80 -317 -117 -616 -369 -834
-704 -66 -103 -150 -265 -190 -369 -16 -41 -36 -91 -44 -110 l-14 -35 -14 39
c-8 22 -16 41 -18 44 -8 8 -67 -132 -112 -265 -41 -120 -44 -135 -34 -176 19
-88 39 -243 46 -365 l7 -122 127 0 127 0 6 121 c47 859 549 1558 1209 1682
l78 15 2 -907 3 -906 130 0 130 0 3 1073 2 1072 -127 -1 c-71 -1 -141 -4 -158
-6z m255 -1063 l0 -1050 -105 0 -105 0 0 905 c0 766 -2 905 -14 905 -36 0
-181 -33 -257 -59 -427 -144 -781 -534 -953 -1052 -67 -200 -116 -470 -116
-639 l0 -60 -110 0 -110 0 0 58 c0 68 -25 292 -41 359 -6 26 -11 62 -11 79 0
35 57 209 99 300 l27 59 15 -47 c8 -27 17 -48 21 -48 3 0 14 26 24 57 58 184
200 457 320 617 242 321 538 531 877 621 113 30 208 42 342 44 l97 1 0 -1050z"/>
<path d="M3288 1600 c-37 -16 -92 -45 -123 -64 l-55 -36 2 -747 3 -748 130 0
130 0 3 813 c2 646 0 812 -10 812 -7 -1 -43 -14 -80 -30z m62 -785 l0 -785
-110 0 -110 0 0 729 c0 593 2 731 13 740 17 14 188 101 199 101 4 0 8 -353 8
-785z"/>
</g>
</svg>
